<?xml version="1.0" encoding="UTF-8" standalone="no"?>
<!-- Created with Inkscape (http://www.inkscape.org/) -->

<svg
   xmlns:dc="http://purl.org/dc/elements/1.1/"
   xmlns:cc="http://creativecommons.org/ns#"
   xmlns:rdf="http://www.w3.org/1999/02/22-rdf-syntax-ns#"
   xmlns:svg="http://www.w3.org/2000/svg"
   xmlns="http://www.w3.org/2000/svg"
   xmlns:sodipodi="http://sodipodi.sourceforge.net/DTD/sodipodi-0.dtd"
   xmlns:inkscape="http://www.inkscape.org/namespaces/inkscape"
   id="svg3519"
   version="1.1"
   inkscape:version="0.91 r13725"
   xml:space="preserve"
   width="1417.325"
   height="1417.325"
   viewBox="0 0 1417.325 1417.325"
   sodipodi:docname="bus_left.svg"><metadata
     id="metadata3525"><rdf:RDF><cc:Work
         rdf:about=""><dc:format>image/svg+xml</dc:format><dc:type
           rdf:resource="http://purl.org/dc/dcmitype/StillImage" /><dc:title></dc:title></cc:Work></rdf:RDF></metadata><defs
     id="defs3523"><clipPath
       clipPathUnits="userSpaceOnUse"
       id="clipPath3535"><path
         d="m 0,1133.859 1133.857,0 L 1133.857,0 0,0 0,1133.859 Z"
         id="path3537"
         inkscape:connector-curvature="0" /></clipPath></defs><sodipodi:namedview
     pagecolor="#ffffff"
     bordercolor="#666666"
     borderopacity="1"
     objecttolerance="10"
     gridtolerance="10"
     guidetolerance="10"
     inkscape:pageopacity="0"
     inkscape:pageshadow="2"
     inkscape:window-width="1615"
     inkscape:window-height="1026"
     id="namedview3521"
     showgrid="false"
     inkscape:zoom="0.16651086"
     inkscape:cx="708.66248"
     inkscape:cy="708.66248"
     inkscape:window-x="65"
     inkscape:window-y="24"
     inkscape:window-maximized="1"
     inkscape:current-layer="g3527" /><g
     id="g3527"
     inkscape:groupmode="layer"
     inkscape:label="B_T05"
     transform="matrix(1.25,0,0,-1.25,0,1417.325)"><path
       d="m 0,0 1133.858,0 0,1133.86 L 0,1133.86 0,0 Z"
       style="fill:#293d9b;fill-opacity:1;fill-rule:nonzero;stroke:none"
       id="path3529"
       inkscape:connector-curvature="0" /><g
       id="g3531"><g
         id="g3533"
         clip-path="url(#clipPath3535)"><g
           id="g3539"
           transform="translate(970.3438,1020.5215)"><path
             d="m 0,0 -806.86,0 c -27.71,0 -50.172,-22.462 -50.172,-50.172 l 0,-806.871 c 0,-27.709 22.462,-50.172 50.172,-50.172 l 806.86,0 c 27.711,0 50.172,22.463 50.172,50.172 l 0,806.871 C 50.172,-22.462 27.711,0 0,0 m -806.86,14.175 806.86,0 c 35.539,0 64.348,-28.809 64.348,-64.347 l 0,-806.871 c 0,-35.539 -28.809,-64.348 -64.348,-64.348 l -806.86,0 c -35.538,0 -64.347,28.809 -64.347,64.348 l 0,806.871 c 0,35.538 28.809,64.347 64.347,64.347"
             style="fill:#ffffff;fill-opacity:1;fill-rule:evenodd;stroke:none"
             id="path3541"
             inkscape:connector-curvature="0" /></g><g
           id="g3543"
           transform="translate(737.0176,524.4102)"><path
             d="m 0,0 c 0,-7.828 -6.348,-14.176 -14.17,-14.176 l -171.494,0 c -7.822,0 -14.178,6.348 -14.178,14.176 l 0,170.079 c 0,7.822 6.356,14.17 14.178,14.17 l 171.494,0 c 7.822,0 14.17,-6.348 14.17,-14.17 L 0,0 Z m -228.183,-51.031 c 0,-12.516 -10.166,-22.676 -22.675,-22.676 -12.519,0 -22.685,10.16 -22.685,22.676 l 0,215.435 c 0,12.52 10.166,22.682 22.685,22.682 12.509,0 22.675,-10.162 22.675,-22.682 l 0,-215.435 z m -73.703,0 c 0,-12.516 -10.166,-22.676 -22.675,-22.676 -12.52,0 -22.686,10.16 -22.686,22.676 l 0,215.435 c 0,12.52 10.166,22.682 22.686,22.682 12.509,0 22.675,-10.162 22.675,-22.682 l 0,-215.435 z m -73.701,-5.668 c 0,-7.822 -6.348,-14.172 -14.18,-14.172 l -77.294,0 c -7.823,0 -14.169,6.35 -14.169,14.172 0,1.244 0.166,2.478 0.487,3.681 l 59.951,223.307 c 2.656,9.907 11.641,16.797 21.904,16.797 l 0.625,0 c 12.51,0 22.676,-10.162 22.676,-22.682 l 0,-221.103 z m 418.107,240.948 127.568,0 0,28.345 -569.737,0 c -23.086,0 -43.291,-15.498 -49.278,-37.793 l -59.559,-221.838 c -1.162,-4.313 -1.748,-8.76 -1.748,-13.229 l 0,-143.834 c 0,-12.519 10.155,-22.679 22.674,-22.679 l 263.654,0 c 12.521,0 22.677,10.16 22.677,22.679 l 0,0.42 c -0.02,0.807 -0.03,1.608 -0.03,2.418 0,71.973 58.417,130.391 130.4,130.391 71.972,0 130.39,-58.418 130.39,-130.391 0,-0.81 -0.01,-1.611 -0.019,-2.418 -0.01,-0.14 -0.01,-0.277 -0.01,-0.42 0,-12.519 10.166,-22.679 22.686,-22.679 l 87.9,0 0,212.603 -127.568,0 c -7.823,0 -14.17,6.348 -14.17,14.176 l 0,170.079 c 0,7.822 6.347,14.17 14.17,14.17"
             style="fill:#ffffff;fill-opacity:1;fill-rule:nonzero;stroke:none"
             id="path3545"
             inkscape:connector-curvature="0" /></g><g
           id="g3547"
           transform="translate(667.0176,267.752)"><path
             d="m 0,0 c -31.299,0 -56.699,25.4 -56.699,56.695 0,31.293 25.4,56.69 56.699,56.69 31.289,0 56.689,-25.397 56.689,-56.69 C 56.689,25.4 31.289,0 0,0 m 0,153.775 c -54.766,0 -99.217,-44.447 -99.217,-99.209 0,-54.765 44.451,-99.214 99.217,-99.214 54.766,0 99.209,44.449 99.209,99.214 0,54.762 -44.443,99.209 -99.209,99.209"
             style="fill:#ffffff;fill-opacity:1;fill-rule:nonzero;stroke:none"
             id="path3549"
             inkscape:connector-curvature="0" /></g></g></g></g></svg>