<?xml version="1.0" encoding="UTF-8" standalone="no"?>
<!-- Created with Inkscape (http://www.inkscape.org/) -->

<svg
   xmlns:dc="http://purl.org/dc/elements/1.1/"
   xmlns:cc="http://creativecommons.org/ns#"
   xmlns:rdf="http://www.w3.org/1999/02/22-rdf-syntax-ns#"
   xmlns:svg="http://www.w3.org/2000/svg"
   xmlns="http://www.w3.org/2000/svg"
   xmlns:sodipodi="http://sodipodi.sourceforge.net/DTD/sodipodi-0.dtd"
   xmlns:inkscape="http://www.inkscape.org/namespaces/inkscape"
   id="svg3355"
   version="1.1"
   inkscape:version="0.91 r13725"
   xml:space="preserve"
   width="1417.325"
   height="1417.325"
   viewBox="0 0 1417.325 1417.325"
   sodipodi:docname="tram_left.svg"><metadata
     id="metadata3361"><rdf:RDF><cc:Work
         rdf:about=""><dc:format>image/svg+xml</dc:format><dc:type
           rdf:resource="http://purl.org/dc/dcmitype/StillImage" /><dc:title></dc:title></cc:Work></rdf:RDF></metadata><defs
     id="defs3359"><clipPath
       clipPathUnits="userSpaceOnUse"
       id="clipPath3371"><path
         d="m 0,1133.859 1133.857,0 L 1133.857,0 0,0 0,1133.859 Z"
         id="path3373"
         inkscape:connector-curvature="0" /></clipPath></defs><sodipodi:namedview
     pagecolor="#ffffff"
     bordercolor="#666666"
     borderopacity="1"
     objecttolerance="10"
     gridtolerance="10"
     guidetolerance="10"
     inkscape:pageopacity="0"
     inkscape:pageshadow="2"
     inkscape:window-width="1615"
     inkscape:window-height="1026"
     id="namedview3357"
     showgrid="false"
     inkscape:zoom="0.62723795"
     inkscape:cx="708.66248"
     inkscape:cy="708.66248"
     inkscape:window-x="65"
     inkscape:window-y="24"
     inkscape:window-maximized="1"
     inkscape:current-layer="g3363" /><g
     id="g3363"
     inkscape:groupmode="layer"
     inkscape:label="B_T01"
     transform="matrix(1.25,0,0,-1.25,0,1417.325)"><path
       d="m 0,0 1133.858,0 0,1133.86 L 0,1133.86 0,0 Z"
       style="fill:#293d9b;fill-opacity:1;fill-rule:nonzero;stroke:none"
       id="path3365"
       inkscape:connector-curvature="0" /><g
       id="g3367"><g
         id="g3369"
         clip-path="url(#clipPath3371)"><g
           id="g3375"
           transform="translate(1020.4707,155.9102)"><path
             d="m 0,0 c 0,-23.477 -19.043,-42.525 -42.52,-42.525 l -822.044,0 c -23.471,0 -42.524,19.048 -42.524,42.525 l 0,822.046 c 0,23.466 19.053,42.514 42.524,42.514 l 822.044,0 C -19.043,864.56 0,845.512 0,822.046 L 0,0 Z m -42.52,878.735 -822.044,0 c -31.294,0 -56.693,-25.395 -56.693,-56.694 l 0,-822.041 c 0,-31.299 25.399,-56.699 56.693,-56.699 l 822.044,0 c 31.299,0 56.7,25.4 56.7,56.699 l 0,822.041 c 0,31.299 -25.401,56.694 -56.7,56.694"
             style="fill:#ffffff;fill-opacity:1;fill-rule:nonzero;stroke:none"
             id="path3377"
             inkscape:connector-curvature="0" /></g><g
           id="g3379"
           transform="translate(237.6494,307.5645)"><path
             d="m 0,0 c -7.827,0 -14.174,6.354 -14.174,14.17 0,0.674 0.048,1.344 0.141,2.008 l 12.071,84.498 146.993,-0.09 L 145.031,0 0,0 Z"
             style="fill:#ffffff;fill-opacity:1;fill-rule:nonzero;stroke:none"
             id="path3381"
             inkscape:connector-curvature="0" /></g><g
           id="g3383"
           transform="translate(541.2207,737.0142)"><path
             d="M 0,0 -80.304,54.444 25.752,114.995 132.061,54.663 51.426,0 0,0 Z m -150.035,-147.402 c 0,-7.823 -6.353,-14.176 -14.175,-14.176 l -73.892,0 c -7.827,0 -14.175,6.353 -14.175,14.176 0,0.673 0.049,1.342 0.142,2.006 l 15.288,107.008 c 0.996,6.977 6.978,12.168 14.033,12.168 l 58.604,0 c 7.822,0 14.175,-6.353 14.175,-14.17 l 0,-107.012 z m 189.566,121.186 326.338,-0.004 0,26.22 -266.455,0 83.623,56.695 -157.324,89.292 -156.388,-89.292 -0.938,0 L -47.989,0 -221.686,0 c -21.162,0 -39.101,-15.556 -42.095,-36.508 l -37.91,-265.381 667.56,0 0,140.311 -326.338,0 c -7.627,0 -13.818,6.193 -13.818,13.819 0,7.632 6.191,13.823 13.818,13.823 l 326.338,0 0,26.221 -326.338,0 c -7.627,0 -13.818,6.192 -13.818,13.819 0,7.626 6.191,13.818 13.818,13.818 l 326.338,0 0,26.221 -326.338,0 c -7.627,0 -13.818,6.186 -13.818,13.818 0,7.627 6.191,13.823 13.818,13.823"
             style="fill:#ffffff;fill-opacity:1;fill-rule:nonzero;stroke:none"
             id="path3385"
             inkscape:connector-curvature="0" /></g><g
           id="g3387"
           transform="translate(725.9961,339.377)"><path
             d="m 0,0 c 0,39.896 -32.383,72.279 -72.285,72.279 -39.893,0 -72.276,-32.383 -72.276,-72.279 0,-39.908 32.383,-72.287 72.276,-72.287 C -32.383,-72.287 0,-39.908 0,0"
             style="fill:#ffffff;fill-opacity:1;fill-rule:nonzero;stroke:none"
             id="path3389"
             inkscape:connector-curvature="0" /></g><g
           id="g3391"
           transform="translate(555.5854,339.377)"><path
             d="m 0,0 c 0,39.896 -32.383,72.279 -72.285,72.279 -39.898,0 -72.28,-32.383 -72.28,-72.279 0,-39.908 32.382,-72.287 72.28,-72.287 C -32.383,-72.287 0,-39.908 0,0"
             style="fill:#ffffff;fill-opacity:1;fill-rule:nonzero;stroke:none"
             id="path3393"
             inkscape:connector-curvature="0" /></g><path
           d="m 226.776,892.923 680.314,0 0,14.169 -680.314,0 0,-14.169 z"
           style="fill:#ffffff;fill-opacity:1;fill-rule:nonzero;stroke:none"
           id="path3395"
           inkscape:connector-curvature="0" /><path
           d="m 907.09,253.707 -680.314,0 0,-26.934 680.314,0 0,26.934 z"
           style="fill:#ffffff;fill-opacity:1;fill-rule:nonzero;stroke:none"
           id="path3397"
           inkscape:connector-curvature="0" /><g
           id="g3399"
           transform="translate(907.0898,403.9414)"><path
             d="m 0,0 0,4.254 -155.898,0 0,-100.631 L 0,-96.377 0,0 Z"
             style="fill:#ffffff;fill-opacity:1;fill-rule:nonzero;stroke:none"
             id="path3401"
             inkscape:connector-curvature="0" /></g></g></g></g></svg>