<?xml version="1.0" encoding="UTF-8" standalone="no"?>
<!-- Created with Inkscape (http://www.inkscape.org/) -->

<svg
   xmlns:dc="http://purl.org/dc/elements/1.1/"
   xmlns:cc="http://creativecommons.org/ns#"
   xmlns:rdf="http://www.w3.org/1999/02/22-rdf-syntax-ns#"
   xmlns:svg="http://www.w3.org/2000/svg"
   xmlns="http://www.w3.org/2000/svg"
   xmlns:sodipodi="http://sodipodi.sourceforge.net/DTD/sodipodi-0.dtd"
   xmlns:inkscape="http://www.inkscape.org/namespaces/inkscape"
   id="svg3441"
   version="1.1"
   inkscape:version="0.91 r13725"
   xml:space="preserve"
   width="1417.325"
   height="1417.325"
   viewBox="0 0 1417.325 1417.325"
   sodipodi:docname="tram_left_180.svg"><metadata
     id="metadata3447"><rdf:RDF><cc:Work
         rdf:about=""><dc:format>image/svg+xml</dc:format><dc:type
           rdf:resource="http://purl.org/dc/dcmitype/StillImage" /><dc:title></dc:title></cc:Work></rdf:RDF></metadata><defs
     id="defs3445"><clipPath
       clipPathUnits="userSpaceOnUse"
       id="clipPath3457"><path
         d="m 0,1133.859 1133.857,0 L 1133.857,0 0,0 0,1133.859 Z"
         id="path3459"
         inkscape:connector-curvature="0" /></clipPath></defs><sodipodi:namedview
     pagecolor="#ffffff"
     bordercolor="#666666"
     borderopacity="1"
     objecttolerance="10"
     gridtolerance="10"
     guidetolerance="10"
     inkscape:pageopacity="0"
     inkscape:pageshadow="2"
     inkscape:window-width="1615"
     inkscape:window-height="1026"
     id="namedview3443"
     showgrid="false"
     inkscape:zoom="0.16651086"
     inkscape:cx="708.66247"
     inkscape:cy="708.66247"
     inkscape:window-x="65"
     inkscape:window-y="24"
     inkscape:window-maximized="1"
     inkscape:current-layer="g3449" /><g
     id="g3449"
     inkscape:groupmode="layer"
     inkscape:label="B_T03"
     transform="matrix(1.25,0,0,-1.25,0,1417.325)"><path
       d="m 0,0 1133.858,0 0,1133.86 L 0,1133.86 0,0 Z"
       style="fill:#293d9b;fill-opacity:1;fill-rule:nonzero;stroke:none"
       id="path3451"
       inkscape:connector-curvature="0" /><g
       id="g3453"
       transform="matrix(-1,0,0,-1,1133.9508,1133.7604)"><g
         id="g3455"
         clip-path="url(#clipPath3457)"><g
           id="g3461"
           transform="translate(970.3789,1020.4517)"><path
             d="m 0,0 -806.807,0 c -27.707,0 -50.168,-22.46 -50.168,-50.168 l 0,-806.807 c 0,-27.707 22.461,-50.168 50.168,-50.168 l 806.807,0 c 27.707,0 50.168,22.461 50.168,50.168 l 0,806.807 C 50.168,-22.46 27.707,0 0,0 M -806.807,14.174 0,14.174 c 35.535,0 64.342,-28.806 64.342,-64.342 l 0,-806.807 c 0,-35.535 -28.807,-64.342 -64.342,-64.342 l -806.807,0 c -35.535,0 -64.342,28.807 -64.342,64.342 l 0,806.807 c 0,35.536 28.807,64.342 64.342,64.342"
             style="fill:#ffffff;fill-opacity:1;fill-rule:evenodd;stroke:none"
             id="path3463"
             inkscape:connector-curvature="0" /></g><g
           id="g3465"
           transform="translate(506.0586,690.1929)"><path
             d="m 0,0 0,-218.248 c 0,-11.732 -9.53,-21.259 -21.258,-21.259 -11.737,0 -21.257,9.527 -21.257,21.259 l 0,218.248 c 0,11.737 9.52,21.257 21.257,21.257 C -9.53,21.257 0,11.737 0,0 m 25.506,4.252 c 0,7.822 6.348,14.174 14.169,14.174 l 170.063,0 c 7.832,0 14.18,-6.352 14.18,-14.174 l 0,-170.064 c 0,-7.82 -6.348,-14.168 -14.18,-14.168 l -170.063,0 c -7.821,0 -14.169,6.348 -14.169,14.168 l 0,170.064 z m -94.25,-222.5 c 0,-11.732 -9.52,-21.259 -21.253,-21.259 -11.737,0 -21.258,9.527 -21.258,21.259 l 0,218.248 c 0,11.737 9.521,21.257 21.258,21.257 11.733,0 21.253,-9.52 21.253,-21.257 l 0,-218.248 z m -68.734,-4.248 c 0,-7.826 -6.348,-14.173 -14.169,-14.173 l -83.836,0 c -7.826,0 -14.174,6.347 -14.174,14.173 0,1.401 0.211,2.793 0.621,4.135 l 68.558,224.57 c 2.734,8.941 10.986,15.048 20.331,15.048 l 1.411,0 c 11.736,0 21.258,-9.52 21.258,-21.257 l 0,-222.496 z m 258.132,394.57 c 2.461,2.461 3.838,5.796 3.838,9.268 0,7.241 -5.869,13.109 -13.115,13.109 -3.477,0 -6.805,-1.377 -9.266,-3.838 L -44.566,43.937 l -116.65,0 c -20.882,0 -39.314,-13.647 -45.416,-33.621 l -71.576,-234.448 c -0.655,-2.143 -0.987,-4.379 -0.987,-6.619 l 0,-102.288 c 0,-7.826 6.347,-14.173 14.174,-14.173 l 666.091,0 0,167.232 -137.468,0 c -7.832,0 -14.18,6.348 -14.18,14.168 l 0,170.064 c 0,7.822 6.348,14.174 14.18,14.174 l 137.468,0 0,25.511 -408.559,0 128.143,128.137 z"
             style="fill:#ffffff;fill-opacity:1;fill-rule:nonzero;stroke:none"
             id="path3467"
             inkscape:connector-curvature="0" /></g><g
           id="g3469"
           transform="translate(553.8286,314.6348)"><path
             d="m 0,0 -142.845,0 c 11.762,-29.119 40.017,-48.186 71.425,-48.186 31.403,0 59.663,19.067 71.42,48.186"
             style="fill:#ffffff;fill-opacity:1;fill-rule:nonzero;stroke:none"
             id="path3471"
             inkscape:connector-curvature="0" /></g><g
           id="g3473"
           transform="translate(723.9023,314.6348)"><path
             d="m 0,0 -0.01,0 -142.84,0 c 11.756,-29.119 40.016,-48.186 71.42,-48.186 31.403,0 59.662,19.067 71.43,48.186"
             style="fill:#ffffff;fill-opacity:1;fill-rule:nonzero;stroke:none"
             id="path3475"
             inkscape:connector-curvature="0" /></g><path
           d="m 226.864,252.279 680.265,0 0,-25.51 -680.265,0 0,25.51 z"
           style="fill:#ffffff;fill-opacity:1;fill-rule:nonzero;stroke:none"
           id="path3477"
           inkscape:connector-curvature="0" /><path
           d="m 226.864,907.024 680.265,0 0,-14.168 -680.265,0 0,14.168 z"
           style="fill:#ffffff;fill-opacity:1;fill-rule:nonzero;stroke:none"
           id="path3479"
           inkscape:connector-curvature="0" /></g></g></g></svg>